<?xml version="1.0" encoding="utf-8" standalone="no"?>
<!DOCTYPE svg PUBLIC "-//W3C//DTD SVG 1.1//EN"
  "http://www.w3.org/Graphics/SVG/1.1/DTD/svg11.dtd">
<!-- Created with matplotlib (https://matplotlib.org/) -->
<svg height="309.677625pt" version="1.1" viewBox="0 0 313.094812 309.677625" width="313.094812pt" xmlns="http://www.w3.org/2000/svg" xmlns:xlink="http://www.w3.org/1999/xlink">
 <defs>
  <style type="text/css">
*{stroke-linecap:butt;stroke-linejoin:round;}
  </style>
 </defs>
 <g id="figure_1">
  <g id="patch_1">
   <path d="M -0 309.677625 
L 313.094812 309.677625 
L 313.094812 0 
L -0 0 
z
" style="fill:#ffffff;"/>
  </g>
  <g id="axes_1">
   <g id="patch_2">
    <path d="M 39.782813 273.312 
L 305.894812 273.312 
L 305.894812 7.2 
L 39.782813 7.2 
z
" style="fill:#ffffff;"/>
   </g>
   <g id="PathCollection_1">
    <defs>
     <path d="M 0 2.236068 
C 0.593012 2.236068 1.161816 2.000462 1.581139 1.581139 
C 2.000462 1.161816 2.236068 0.593012 2.236068 0 
C 2.236068 -0.593012 2.000462 -1.161816 1.581139 -1.581139 
C 1.161816 -2.000462 0.593012 -2.236068 0 -2.236068 
C -0.593012 -2.236068 -1.161816 -2.000462 -1.581139 -1.581139 
C -2.000462 -1.161816 -2.236068 -0.593012 -2.236068 0 
C -2.236068 0.593012 -2.000462 1.161816 -1.581139 1.581139 
C -1.161816 2.000462 -0.593012 2.236068 0 2.236068 
z
" id="C0_0_75b8da70dc"/>
    </defs>
    <g clip-path="url(#p96e1b23b24)">
     <use style="fill:#1f77b4;" x="60.252966" xlink:href="#C0_0_75b8da70dc" y="159.742601"/>
    </g>
    <g clip-path="url(#p96e1b23b24)">
     <use style="fill:#1f77b4;" x="60.252966" xlink:href="#C0_0_75b8da70dc" y="159.717083"/>
    </g>
    <g clip-path="url(#p96e1b23b24)">
     <use style="fill:#1f77b4;" x="60.252966" xlink:href="#C0_0_75b8da70dc" y="159.555182"/>
    </g>
    <g clip-path="url(#p96e1b23b24)">
     <use style="fill:#1f77b4;" x="60.252966" xlink:href="#C0_0_75b8da70dc" y="159.545065"/>
    </g>
    <g clip-path="url(#p96e1b23b24)">
     <use style="fill:#1f77b4;" x="60.252966" xlink:href="#C0_0_75b8da70dc" y="159.535664"/>
    </g>
    <g clip-path="url(#p96e1b23b24)">
     <use style="fill:#1f77b4;" x="60.252966" xlink:href="#C0_0_75b8da70dc" y="136.81655"/>
    </g>
    <g clip-path="url(#p96e1b23b24)">
     <use style="fill:#1f77b4;" x="60.252966" xlink:href="#C0_0_75b8da70dc" y="136.789691"/>
    </g>
    <g clip-path="url(#p96e1b23b24)">
     <use style="fill:#1f77b4;" x="60.252966" xlink:href="#C0_0_75b8da70dc" y="133.804418"/>
    </g>
    <g clip-path="url(#p96e1b23b24)">
     <use style="fill:#1f77b4;" x="60.252966" xlink:href="#C0_0_75b8da70dc" y="133.800731"/>
    </g>
    <g clip-path="url(#p96e1b23b24)">
     <use style="fill:#1f77b4;" x="60.252966" xlink:href="#C0_0_75b8da70dc" y="133.376117"/>
    </g>
   </g>
   <g id="PathCollection_2">
    <path clip-path="url(#p96e1b23b24)" d="M 179.747131 50.376376 
C 180.340143 50.376376 180.908947 50.140769 181.32827 49.721447 
C 181.747593 49.302124 181.983199 48.73332 181.983199 48.140308 
C 181.983199 47.547296 181.747593 46.978492 181.32827 46.559169 
C 180.908947 46.139846 180.340143 45.90424 179.747131 45.90424 
C 179.154119 45.90424 178.585315 46.139846 178.165992 46.559169 
C 177.746669 46.978492 177.511063 47.547296 177.511063 48.140308 
C 177.511063 48.73332 177.746669 49.302124 178.165992 49.721447 
C 178.585315 50.140769 179.154119 50.376376 179.747131 50.376376 
z
" style="fill:#ff7f0e;"/>
   </g>
   <g id="matplotlib.axis_1">
    <g id="xtick_1">
     <g id="line2d_1">
      <defs>
       <path d="M 0 0 
L 0 3.5 
" id="m2d0d14ff1f" style="stroke:#000000;stroke-width:0.8;"/>
      </defs>
      <g>
       <use style="stroke:#000000;stroke-width:0.8;" x="60.252966" xlink:href="#m2d0d14ff1f" y="273.312"/>
      </g>
     </g>
     <g id="text_1">
      <!-- 0.0 -->
      <defs>
       <path d="M 3.609375 32.71875 
Q 3.609375 44.046875 7.03125 52.21875 
Q 10.453125 60.40625 16.109375 64.40625 
Q 20.515625 67.578125 25.203125 67.578125 
Q 32.8125 67.578125 38.875 59.8125 
Q 46.4375 50.203125 46.4375 33.734375 
Q 46.4375 22.21875 43.109375 14.15625 
Q 39.796875 6.109375 34.640625 2.46875 
Q 29.5 -1.171875 24.703125 -1.171875 
Q 15.234375 -1.171875 8.9375 10.015625 
Q 3.609375 19.4375 3.609375 32.71875 
z
M 13.1875 31.5 
Q 13.1875 17.828125 16.546875 9.1875 
Q 19.34375 1.90625 24.859375 1.90625 
Q 27.484375 1.90625 30.3125 4.265625 
Q 33.15625 6.640625 34.625 12.203125 
Q 36.859375 20.609375 36.859375 35.890625 
Q 36.859375 47.21875 34.515625 54.78125 
Q 32.765625 60.40625 29.984375 62.75 
Q 27.984375 64.359375 25.140625 64.359375 
Q 21.828125 64.359375 19.234375 61.375 
Q 15.71875 57.328125 14.453125 48.625 
Q 13.1875 39.9375 13.1875 31.5 
z
" id="TimesNewRomanPSMT-48"/>
       <path d="M 12.5 9.46875 
Q 14.796875 9.46875 16.359375 7.875 
Q 17.921875 6.296875 17.921875 4.046875 
Q 17.921875 1.8125 16.328125 0.21875 
Q 14.75 -1.375 12.5 -1.375 
Q 10.25 -1.375 8.65625 0.21875 
Q 7.078125 1.8125 7.078125 4.046875 
Q 7.078125 6.34375 8.65625 7.90625 
Q 10.25 9.46875 12.5 9.46875 
z
" id="TimesNewRomanPSMT-46"/>
      </defs>
      <g transform="translate(54.002966 287.25575)scale(0.1 -0.1)">
       <use xlink:href="#TimesNewRomanPSMT-48"/>
       <use x="50" xlink:href="#TimesNewRomanPSMT-46"/>
       <use x="75" xlink:href="#TimesNewRomanPSMT-48"/>
      </g>
     </g>
    </g>
    <g id="xtick_2">
     <g id="line2d_2">
      <g>
       <use style="stroke:#000000;stroke-width:0.8;" x="103.201837" xlink:href="#m2d0d14ff1f" y="273.312"/>
      </g>
     </g>
     <g id="text_2">
      <!-- 0.5 -->
      <defs>
       <path d="M 43.40625 66.21875 
L 39.59375 57.90625 
L 19.671875 57.90625 
L 15.328125 49.03125 
Q 28.265625 47.125 35.84375 39.40625 
Q 42.328125 32.765625 42.328125 23.78125 
Q 42.328125 18.5625 40.203125 14.109375 
Q 38.09375 9.671875 34.859375 6.546875 
Q 31.640625 3.421875 27.6875 1.515625 
Q 22.078125 -1.171875 16.15625 -1.171875 
Q 10.203125 -1.171875 7.484375 0.84375 
Q 4.78125 2.875 4.78125 5.328125 
Q 4.78125 6.6875 5.90625 7.734375 
Q 7.03125 8.796875 8.734375 8.796875 
Q 10.015625 8.796875 10.96875 8.40625 
Q 11.921875 8.015625 14.203125 6.390625 
Q 17.875 3.859375 21.625 3.859375 
Q 27.34375 3.859375 31.65625 8.171875 
Q 35.984375 12.5 35.984375 18.703125 
Q 35.984375 24.703125 32.125 29.90625 
Q 28.265625 35.109375 21.484375 37.9375 
Q 16.15625 40.140625 6.984375 40.484375 
L 19.671875 66.21875 
z
" id="TimesNewRomanPSMT-53"/>
      </defs>
      <g transform="translate(96.951837 287.25575)scale(0.1 -0.1)">
       <use xlink:href="#TimesNewRomanPSMT-48"/>
       <use x="50" xlink:href="#TimesNewRomanPSMT-46"/>
       <use x="75" xlink:href="#TimesNewRomanPSMT-53"/>
      </g>
     </g>
    </g>
    <g id="xtick_3">
     <g id="line2d_3">
      <g>
       <use style="stroke:#000000;stroke-width:0.8;" x="146.150708" xlink:href="#m2d0d14ff1f" y="273.312"/>
      </g>
     </g>
     <g id="text_3">
      <!-- 1.0 -->
      <defs>
       <path d="M 11.71875 59.71875 
L 27.828125 67.578125 
L 29.4375 67.578125 
L 29.4375 11.671875 
Q 29.4375 6.109375 29.90625 4.734375 
Q 30.375 3.375 31.828125 2.640625 
Q 33.296875 1.90625 37.796875 1.8125 
L 37.796875 0 
L 12.890625 0 
L 12.890625 1.8125 
Q 17.578125 1.90625 18.9375 2.609375 
Q 20.3125 3.328125 20.84375 4.515625 
Q 21.390625 5.71875 21.390625 11.671875 
L 21.390625 47.40625 
Q 21.390625 54.640625 20.90625 56.6875 
Q 20.5625 58.25 19.65625 58.984375 
Q 18.75 59.71875 17.484375 59.71875 
Q 15.671875 59.71875 12.453125 58.203125 
z
" id="TimesNewRomanPSMT-49"/>
      </defs>
      <g transform="translate(139.900708 287.25575)scale(0.1 -0.1)">
       <use xlink:href="#TimesNewRomanPSMT-49"/>
       <use x="50" xlink:href="#TimesNewRomanPSMT-46"/>
       <use x="75" xlink:href="#TimesNewRomanPSMT-48"/>
      </g>
     </g>
    </g>
    <g id="xtick_4">
     <g id="line2d_4">
      <g>
       <use style="stroke:#000000;stroke-width:0.8;" x="189.099579" xlink:href="#m2d0d14ff1f" y="273.312"/>
      </g>
     </g>
     <g id="text_4">
      <!-- 1.5 -->
      <g transform="translate(182.849579 287.25575)scale(0.1 -0.1)">
       <use xlink:href="#TimesNewRomanPSMT-49"/>
       <use x="50" xlink:href="#TimesNewRomanPSMT-46"/>
       <use x="75" xlink:href="#TimesNewRomanPSMT-53"/>
      </g>
     </g>
    </g>
    <g id="xtick_5">
     <g id="line2d_5">
      <g>
       <use style="stroke:#000000;stroke-width:0.8;" x="232.048449" xlink:href="#m2d0d14ff1f" y="273.312"/>
      </g>
     </g>
     <g id="text_5">
      <!-- 2.0 -->
      <defs>
       <path d="M 45.84375 12.75 
L 41.21875 0 
L 2.15625 0 
L 2.15625 1.8125 
Q 19.390625 17.53125 26.421875 27.484375 
Q 33.453125 37.453125 33.453125 45.703125 
Q 33.453125 52 29.59375 56.046875 
Q 25.734375 60.109375 20.359375 60.109375 
Q 15.484375 60.109375 11.59375 57.25 
Q 7.71875 54.390625 5.859375 48.875 
L 4.046875 48.875 
Q 5.28125 57.90625 10.328125 62.734375 
Q 15.375 67.578125 22.953125 67.578125 
Q 31 67.578125 36.390625 62.40625 
Q 41.796875 57.234375 41.796875 50.203125 
Q 41.796875 45.171875 39.453125 40.140625 
Q 35.84375 32.234375 27.734375 23.390625 
Q 15.578125 10.109375 12.546875 7.375 
L 29.828125 7.375 
Q 35.109375 7.375 37.234375 7.765625 
Q 39.359375 8.15625 41.0625 9.34375 
Q 42.78125 10.546875 44.046875 12.75 
z
" id="TimesNewRomanPSMT-50"/>
      </defs>
      <g transform="translate(225.798449 287.25575)scale(0.1 -0.1)">
       <use xlink:href="#TimesNewRomanPSMT-50"/>
       <use x="50" xlink:href="#TimesNewRomanPSMT-46"/>
       <use x="75" xlink:href="#TimesNewRomanPSMT-48"/>
      </g>
     </g>
    </g>
    <g id="xtick_6">
     <g id="line2d_6">
      <g>
       <use style="stroke:#000000;stroke-width:0.8;" x="274.99732" xlink:href="#m2d0d14ff1f" y="273.312"/>
      </g>
     </g>
     <g id="text_6">
      <!-- 2.5 -->
      <g transform="translate(268.74732 287.25575)scale(0.1 -0.1)">
       <use xlink:href="#TimesNewRomanPSMT-50"/>
       <use x="50" xlink:href="#TimesNewRomanPSMT-46"/>
       <use x="75" xlink:href="#TimesNewRomanPSMT-53"/>
      </g>
     </g>
    </g>
    <g id="text_7">
     <!-- Birth -->
     <defs>
      <path d="M 46.1875 33.796875 
Q 53.078125 32.328125 56.5 29.109375 
Q 61.234375 24.609375 61.234375 18.109375 
Q 61.234375 13.1875 58.109375 8.671875 
Q 54.984375 4.15625 49.53125 2.078125 
Q 44.09375 0 32.90625 0 
L 1.65625 0 
L 1.65625 1.8125 
L 4.15625 1.8125 
Q 8.296875 1.8125 10.109375 4.4375 
Q 11.234375 6.15625 11.234375 11.71875 
L 11.234375 54.5 
Q 11.234375 60.640625 9.8125 62.25 
Q 7.90625 64.40625 4.15625 64.40625 
L 1.65625 64.40625 
L 1.65625 66.21875 
L 30.28125 66.21875 
Q 38.28125 66.21875 43.109375 65.046875 
Q 50.4375 63.28125 54.296875 58.8125 
Q 58.15625 54.34375 58.15625 48.53125 
Q 58.15625 43.5625 55.125 39.625 
Q 52.09375 35.6875 46.1875 33.796875 
z
M 20.609375 36.421875 
Q 22.40625 36.078125 24.71875 35.90625 
Q 27.046875 35.75 29.828125 35.75 
Q 36.96875 35.75 40.546875 37.28125 
Q 44.140625 38.8125 46.046875 41.984375 
Q 47.953125 45.171875 47.953125 48.921875 
Q 47.953125 54.734375 43.21875 58.828125 
Q 38.484375 62.9375 29.390625 62.9375 
Q 24.515625 62.9375 20.609375 61.859375 
z
M 20.609375 4.78125 
Q 26.265625 3.46875 31.78125 3.46875 
Q 40.625 3.46875 45.265625 7.4375 
Q 49.90625 11.421875 49.90625 17.28125 
Q 49.90625 21.140625 47.796875 24.703125 
Q 45.703125 28.265625 40.96875 30.3125 
Q 36.234375 32.375 29.25 32.375 
Q 26.21875 32.375 24.0625 32.265625 
Q 21.921875 32.171875 20.609375 31.9375 
z
" id="TimesNewRomanPSMT-66"/>
      <path d="M 14.5 69.4375 
Q 16.546875 69.4375 17.984375 67.984375 
Q 19.4375 66.546875 19.4375 64.5 
Q 19.4375 62.453125 17.984375 60.984375 
Q 16.546875 59.515625 14.5 59.515625 
Q 12.453125 59.515625 10.984375 60.984375 
Q 9.515625 62.453125 9.515625 64.5 
Q 9.515625 66.546875 10.953125 67.984375 
Q 12.40625 69.4375 14.5 69.4375 
z
M 18.5625 46.046875 
L 18.5625 10.109375 
Q 18.5625 5.90625 19.171875 4.515625 
Q 19.78125 3.125 20.96875 2.4375 
Q 22.171875 1.765625 25.34375 1.765625 
L 25.34375 0 
L 3.609375 0 
L 3.609375 1.765625 
Q 6.890625 1.765625 8 2.390625 
Q 9.125 3.03125 9.78125 4.484375 
Q 10.453125 5.953125 10.453125 10.109375 
L 10.453125 27.34375 
Q 10.453125 34.625 10.015625 36.765625 
Q 9.671875 38.328125 8.9375 38.9375 
Q 8.203125 39.546875 6.9375 39.546875 
Q 5.5625 39.546875 3.609375 38.8125 
L 2.9375 40.578125 
L 16.40625 46.046875 
z
" id="TimesNewRomanPSMT-105"/>
      <path d="M 16.21875 46.046875 
L 16.21875 35.984375 
Q 21.828125 46.046875 27.734375 46.046875 
Q 30.421875 46.046875 32.171875 44.40625 
Q 33.9375 42.78125 33.9375 40.625 
Q 33.9375 38.71875 32.65625 37.390625 
Q 31.390625 36.078125 29.640625 36.078125 
Q 27.9375 36.078125 25.8125 37.765625 
Q 23.6875 39.453125 22.65625 39.453125 
Q 21.78125 39.453125 20.75 38.484375 
Q 18.5625 36.46875 16.21875 31.890625 
L 16.21875 10.453125 
Q 16.21875 6.734375 17.140625 4.828125 
Q 17.78125 3.515625 19.390625 2.640625 
Q 21 1.765625 24.03125 1.765625 
L 24.03125 0 
L 1.125 0 
L 1.125 1.765625 
Q 4.546875 1.765625 6.203125 2.828125 
Q 7.421875 3.609375 7.90625 5.328125 
Q 8.15625 6.15625 8.15625 10.0625 
L 8.15625 27.390625 
Q 8.15625 35.203125 7.828125 36.6875 
Q 7.515625 38.1875 6.65625 38.859375 
Q 5.8125 39.546875 4.546875 39.546875 
Q 3.03125 39.546875 1.125 38.8125 
L 0.640625 40.578125 
L 14.15625 46.046875 
z
" id="TimesNewRomanPSMT-114"/>
      <path d="M 16.109375 59.421875 
L 16.109375 44.734375 
L 26.5625 44.734375 
L 26.5625 41.3125 
L 16.109375 41.3125 
L 16.109375 12.3125 
Q 16.109375 7.953125 17.359375 6.4375 
Q 18.609375 4.9375 20.5625 4.9375 
Q 22.171875 4.9375 23.6875 5.9375 
Q 25.203125 6.9375 26.03125 8.890625 
L 27.9375 8.890625 
Q 26.21875 4.109375 23.09375 1.6875 
Q 19.96875 -0.734375 16.65625 -0.734375 
Q 14.40625 -0.734375 12.25 0.515625 
Q 10.109375 1.765625 9.078125 4.078125 
Q 8.0625 6.390625 8.0625 11.234375 
L 8.0625 41.3125 
L 0.984375 41.3125 
L 0.984375 42.921875 
Q 3.65625 44 6.46875 46.5625 
Q 9.28125 49.125 11.46875 52.640625 
Q 12.59375 54.5 14.59375 59.421875 
z
" id="TimesNewRomanPSMT-116"/>
      <path d="M 16.265625 69.4375 
L 16.265625 36.71875 
Q 21.6875 42.671875 24.859375 44.359375 
Q 28.03125 46.046875 31.203125 46.046875 
Q 35.015625 46.046875 37.75 43.9375 
Q 40.484375 41.84375 41.796875 37.359375 
Q 42.71875 34.234375 42.71875 25.921875 
L 42.71875 10.109375 
Q 42.71875 5.859375 43.40625 4.296875 
Q 43.890625 3.125 45.0625 2.4375 
Q 46.234375 1.765625 49.359375 1.765625 
L 49.359375 0 
L 27.390625 0 
L 27.390625 1.765625 
L 28.421875 1.765625 
Q 31.546875 1.765625 32.765625 2.703125 
Q 33.984375 3.65625 34.46875 5.515625 
Q 34.625 6.296875 34.625 10.109375 
L 34.625 25.921875 
Q 34.625 33.25 33.859375 35.546875 
Q 33.109375 37.84375 31.4375 38.984375 
Q 29.78125 40.140625 27.4375 40.140625 
Q 25.046875 40.140625 22.453125 38.859375 
Q 19.875 37.59375 16.265625 33.734375 
L 16.265625 10.109375 
Q 16.265625 5.515625 16.765625 4.390625 
Q 17.28125 3.265625 18.671875 2.515625 
Q 20.0625 1.765625 23.484375 1.765625 
L 23.484375 0 
L 1.3125 0 
L 1.3125 1.765625 
Q 4.296875 1.765625 6 2.6875 
Q 6.984375 3.171875 7.5625 4.53125 
Q 8.15625 5.90625 8.15625 10.109375 
L 8.15625 50.59375 
Q 8.15625 58.25 7.78125 60 
Q 7.421875 61.765625 6.65625 62.390625 
Q 5.90625 63.03125 4.640625 63.03125 
Q 3.609375 63.03125 1.3125 62.25 
L 0.640625 63.96875 
L 14.015625 69.4375 
z
" id="TimesNewRomanPSMT-104"/>
     </defs>
     <g transform="translate(162.560688 300.338562)scale(0.1 -0.1)">
      <use xlink:href="#TimesNewRomanPSMT-66"/>
      <use x="66.699219" xlink:href="#TimesNewRomanPSMT-105"/>
      <use x="94.482422" xlink:href="#TimesNewRomanPSMT-114"/>
      <use x="127.783203" xlink:href="#TimesNewRomanPSMT-116"/>
      <use x="155.566406" xlink:href="#TimesNewRomanPSMT-104"/>
     </g>
    </g>
   </g>
   <g id="matplotlib.axis_2">
    <g id="ytick_1">
     <g id="line2d_7">
      <defs>
       <path d="M 0 0 
L -3.5 0 
" id="me7b7514ef4" style="stroke:#000000;stroke-width:0.8;"/>
      </defs>
      <g>
       <use style="stroke:#000000;stroke-width:0.8;" x="39.782813" xlink:href="#me7b7514ef4" y="252.841846"/>
      </g>
     </g>
     <g id="text_8">
      <!-- 0.0 -->
      <g transform="translate(20.282813 256.313721)scale(0.1 -0.1)">
       <use xlink:href="#TimesNewRomanPSMT-48"/>
       <use x="50" xlink:href="#TimesNewRomanPSMT-46"/>
       <use x="75" xlink:href="#TimesNewRomanPSMT-48"/>
      </g>
     </g>
    </g>
    <g id="ytick_2">
     <g id="line2d_8">
      <g>
       <use style="stroke:#000000;stroke-width:0.8;" x="39.782813" xlink:href="#me7b7514ef4" y="209.892975"/>
      </g>
     </g>
     <g id="text_9">
      <!-- 0.5 -->
      <g transform="translate(20.282813 213.36485)scale(0.1 -0.1)">
       <use xlink:href="#TimesNewRomanPSMT-48"/>
       <use x="50" xlink:href="#TimesNewRomanPSMT-46"/>
       <use x="75" xlink:href="#TimesNewRomanPSMT-53"/>
      </g>
     </g>
    </g>
    <g id="ytick_3">
     <g id="line2d_9">
      <g>
       <use style="stroke:#000000;stroke-width:0.8;" x="39.782813" xlink:href="#me7b7514ef4" y="166.944105"/>
      </g>
     </g>
     <g id="text_10">
      <!-- 1.0 -->
      <g transform="translate(20.282813 170.41598)scale(0.1 -0.1)">
       <use xlink:href="#TimesNewRomanPSMT-49"/>
       <use x="50" xlink:href="#TimesNewRomanPSMT-46"/>
       <use x="75" xlink:href="#TimesNewRomanPSMT-48"/>
      </g>
     </g>
    </g>
    <g id="ytick_4">
     <g id="line2d_10">
      <g>
       <use style="stroke:#000000;stroke-width:0.8;" x="39.782813" xlink:href="#me7b7514ef4" y="123.995234"/>
      </g>
     </g>
     <g id="text_11">
      <!-- 1.5 -->
      <g transform="translate(20.282813 127.467109)scale(0.1 -0.1)">
       <use xlink:href="#TimesNewRomanPSMT-49"/>
       <use x="50" xlink:href="#TimesNewRomanPSMT-46"/>
       <use x="75" xlink:href="#TimesNewRomanPSMT-53"/>
      </g>
     </g>
    </g>
    <g id="ytick_5">
     <g id="line2d_11">
      <g>
       <use style="stroke:#000000;stroke-width:0.8;" x="39.782813" xlink:href="#me7b7514ef4" y="81.046363"/>
      </g>
     </g>
     <g id="text_12">
      <!-- 2.0 -->
      <g transform="translate(20.282813 84.518238)scale(0.1 -0.1)">
       <use xlink:href="#TimesNewRomanPSMT-50"/>
       <use x="50" xlink:href="#TimesNewRomanPSMT-46"/>
       <use x="75" xlink:href="#TimesNewRomanPSMT-48"/>
      </g>
     </g>
    </g>
    <g id="ytick_6">
     <g id="line2d_12">
      <g>
       <use style="stroke:#000000;stroke-width:0.8;" x="39.782813" xlink:href="#me7b7514ef4" y="38.097492"/>
      </g>
     </g>
     <g id="text_13">
      <!-- 2.5 -->
      <g transform="translate(20.282813 41.569367)scale(0.1 -0.1)">
       <use xlink:href="#TimesNewRomanPSMT-50"/>
       <use x="50" xlink:href="#TimesNewRomanPSMT-46"/>
       <use x="75" xlink:href="#TimesNewRomanPSMT-53"/>
      </g>
     </g>
    </g>
    <g id="text_14">
     <!-- Death -->
     <defs>
      <path d="M 1.703125 0 
L 1.703125 1.8125 
L 4.203125 1.8125 
Q 8.40625 1.8125 10.15625 4.5 
Q 11.234375 6.109375 11.234375 11.71875 
L 11.234375 54.5 
Q 11.234375 60.6875 9.859375 62.25 
Q 7.953125 64.40625 4.203125 64.40625 
L 1.703125 64.40625 
L 1.703125 66.21875 
L 28.65625 66.21875 
Q 43.5 66.21875 51.234375 62.84375 
Q 58.984375 59.46875 63.6875 51.609375 
Q 68.40625 43.75 68.40625 33.453125 
Q 68.40625 19.625 60.015625 10.359375 
Q 50.59375 0 31.296875 0 
z
M 20.609375 4.78125 
Q 26.8125 3.421875 31 3.421875 
Q 42.328125 3.421875 49.796875 11.375 
Q 57.28125 19.34375 57.28125 32.953125 
Q 57.28125 46.6875 49.796875 54.59375 
Q 42.328125 62.5 30.609375 62.5 
Q 26.21875 62.5 20.609375 61.078125 
z
" id="TimesNewRomanPSMT-68"/>
      <path d="M 10.640625 27.875 
Q 10.59375 17.921875 15.484375 12.25 
Q 20.359375 6.59375 26.953125 6.59375 
Q 31.34375 6.59375 34.59375 9 
Q 37.84375 11.421875 40.046875 17.28125 
L 41.546875 16.3125 
Q 40.53125 9.625 35.59375 4.125 
Q 30.671875 -1.375 23.25 -1.375 
Q 15.1875 -1.375 9.453125 4.90625 
Q 3.71875 11.1875 3.71875 21.78125 
Q 3.71875 33.25 9.59375 39.671875 
Q 15.484375 46.09375 24.359375 46.09375 
Q 31.890625 46.09375 36.71875 41.140625 
Q 41.546875 36.1875 41.546875 27.875 
z
M 10.640625 30.71875 
L 31.34375 30.71875 
Q 31.109375 35.015625 30.328125 36.765625 
Q 29.109375 39.5 26.6875 41.0625 
Q 24.265625 42.625 21.625 42.625 
Q 17.578125 42.625 14.375 39.46875 
Q 11.1875 36.328125 10.640625 30.71875 
z
" id="TimesNewRomanPSMT-101"/>
      <path d="M 28.46875 6.453125 
Q 21.578125 1.125 19.828125 0.296875 
Q 17.1875 -0.921875 14.203125 -0.921875 
Q 9.578125 -0.921875 6.5625 2.25 
Q 3.5625 5.421875 3.5625 10.59375 
Q 3.5625 13.875 5.03125 16.265625 
Q 7.03125 19.578125 11.984375 22.5 
Q 16.9375 25.4375 28.46875 29.640625 
L 28.46875 31.390625 
Q 28.46875 38.09375 26.34375 40.578125 
Q 24.21875 43.0625 20.171875 43.0625 
Q 17.09375 43.0625 15.28125 41.40625 
Q 13.421875 39.75 13.421875 37.59375 
L 13.53125 34.765625 
Q 13.53125 32.515625 12.375 31.296875 
Q 11.234375 30.078125 9.375 30.078125 
Q 7.5625 30.078125 6.421875 31.34375 
Q 5.28125 32.625 5.28125 34.8125 
Q 5.28125 39.015625 9.578125 42.53125 
Q 13.875 46.046875 21.625 46.046875 
Q 27.59375 46.046875 31.390625 44.046875 
Q 34.28125 42.53125 35.640625 39.3125 
Q 36.53125 37.203125 36.53125 30.71875 
L 36.53125 15.53125 
Q 36.53125 9.125 36.765625 7.6875 
Q 37.015625 6.25 37.578125 5.765625 
Q 38.140625 5.28125 38.875 5.28125 
Q 39.65625 5.28125 40.234375 5.609375 
Q 41.265625 6.25 44.1875 9.1875 
L 44.1875 6.453125 
Q 38.71875 -0.875 33.734375 -0.875 
Q 31.34375 -0.875 29.921875 0.78125 
Q 28.515625 2.4375 28.46875 6.453125 
z
M 28.46875 9.625 
L 28.46875 26.65625 
Q 21.09375 23.734375 18.953125 22.515625 
Q 15.09375 20.359375 13.421875 18.015625 
Q 11.765625 15.671875 11.765625 12.890625 
Q 11.765625 9.375 13.859375 7.046875 
Q 15.96875 4.734375 18.703125 4.734375 
Q 22.40625 4.734375 28.46875 9.625 
z
" id="TimesNewRomanPSMT-97"/>
     </defs>
     <g transform="translate(14.14375 152.195062)rotate(-90)scale(0.1 -0.1)">
      <use xlink:href="#TimesNewRomanPSMT-68"/>
      <use x="72.216797" xlink:href="#TimesNewRomanPSMT-101"/>
      <use x="116.601562" xlink:href="#TimesNewRomanPSMT-97"/>
      <use x="160.986328" xlink:href="#TimesNewRomanPSMT-116"/>
      <use x="188.769531" xlink:href="#TimesNewRomanPSMT-104"/>
     </g>
    </g>
   </g>
   <g id="line2d_13">
    <path clip-path="url(#p96e1b23b24)" d="M 39.782813 273.312 
L 305.894812 7.2 
" style="fill:none;stroke:#000000;stroke-dasharray:5.55,2.4;stroke-dashoffset:0;stroke-width:1.5;"/>
   </g>
   <g id="patch_3">
    <path d="M 39.782813 273.312 
L 39.782813 7.2 
" style="fill:none;stroke:#000000;stroke-linecap:square;stroke-linejoin:miter;stroke-width:0.8;"/>
   </g>
   <g id="patch_4">
    <path d="M 305.894812 273.312 
L 305.894812 7.2 
" style="fill:none;stroke:#000000;stroke-linecap:square;stroke-linejoin:miter;stroke-width:0.8;"/>
   </g>
   <g id="patch_5">
    <path d="M 39.782813 273.312 
L 305.894812 273.312 
" style="fill:none;stroke:#000000;stroke-linecap:square;stroke-linejoin:miter;stroke-width:0.8;"/>
   </g>
   <g id="patch_6">
    <path d="M 39.782813 7.2 
L 305.894812 7.2 
" style="fill:none;stroke:#000000;stroke-linecap:square;stroke-linejoin:miter;stroke-width:0.8;"/>
   </g>
   <g id="legend_1">
    <g id="patch_7">
     <path d="M 46.782813 43.478125 
L 174.60625 43.478125 
Q 176.60625 43.478125 176.60625 41.478125 
L 176.60625 14.2 
Q 176.60625 12.2 174.60625 12.2 
L 46.782813 12.2 
Q 44.782813 12.2 44.782813 14.2 
L 44.782813 41.478125 
Q 44.782813 43.478125 46.782813 43.478125 
z
" style="fill:#ffffff;opacity:0.8;stroke:#cccccc;stroke-linejoin:miter;"/>
    </g>
    <g id="PathCollection_3">
     <path d="M 58.782813 22.811068 
C 59.375825 22.811068 59.944628 22.575462 60.363951 22.156139 
C 60.783274 21.736816 61.01888 21.168012 61.01888 20.575 
C 61.01888 19.981988 60.783274 19.413184 60.363951 18.993861 
C 59.944628 18.574538 59.375825 18.338932 58.782813 18.338932 
C 58.1898 18.338932 57.620997 18.574538 57.201674 18.993861 
C 56.782351 19.413184 56.546745 19.981988 56.546745 20.575 
C 56.546745 21.168012 56.782351 21.736816 57.201674 22.156139 
C 57.620997 22.575462 58.1898 22.811068 58.782813 22.811068 
z
" style="fill:#1f77b4;"/>
    </g>
    <g id="text_15">
     <!-- Connected Components -->
     <defs>
      <path d="M 60.203125 67.71875 
L 61.71875 45.21875 
L 60.203125 45.21875 
Q 57.171875 55.328125 51.5625 59.765625 
Q 45.953125 64.203125 38.09375 64.203125 
Q 31.5 64.203125 26.171875 60.859375 
Q 20.84375 57.515625 17.796875 50.1875 
Q 14.75 42.875 14.75 31.984375 
Q 14.75 23 17.625 16.40625 
Q 20.515625 9.8125 26.296875 6.296875 
Q 32.078125 2.78125 39.5 2.78125 
Q 45.953125 2.78125 50.875 5.53125 
Q 55.8125 8.296875 61.71875 16.5 
L 63.234375 15.53125 
Q 58.25 6.6875 51.609375 2.578125 
Q 44.96875 -1.515625 35.84375 -1.515625 
Q 19.390625 -1.515625 10.359375 10.6875 
Q 3.609375 19.78125 3.609375 32.078125 
Q 3.609375 42 8.046875 50.296875 
Q 12.5 58.59375 20.28125 63.15625 
Q 28.078125 67.71875 37.3125 67.71875 
Q 44.484375 67.71875 51.46875 64.203125 
Q 53.515625 63.140625 54.390625 63.140625 
Q 55.71875 63.140625 56.6875 64.0625 
Q 57.953125 65.375 58.5 67.71875 
z
" id="TimesNewRomanPSMT-67"/>
      <path d="M 25 46.046875 
Q 35.15625 46.046875 41.3125 38.328125 
Q 46.53125 31.734375 46.53125 23.1875 
Q 46.53125 17.1875 43.640625 11.03125 
Q 40.765625 4.890625 35.71875 1.75 
Q 30.671875 -1.375 24.46875 -1.375 
Q 14.359375 -1.375 8.40625 6.6875 
Q 3.375 13.484375 3.375 21.921875 
Q 3.375 28.078125 6.421875 34.15625 
Q 9.46875 40.234375 14.453125 43.140625 
Q 19.4375 46.046875 25 46.046875 
z
M 23.484375 42.875 
Q 20.90625 42.875 18.28125 41.328125 
Q 15.671875 39.796875 14.0625 35.9375 
Q 12.453125 32.078125 12.453125 26.03125 
Q 12.453125 16.265625 16.328125 9.171875 
Q 20.21875 2.09375 26.5625 2.09375 
Q 31.296875 2.09375 34.375 6 
Q 37.453125 9.90625 37.453125 19.4375 
Q 37.453125 31.34375 32.328125 38.1875 
Q 28.859375 42.875 23.484375 42.875 
z
" id="TimesNewRomanPSMT-111"/>
      <path d="M 16.15625 36.578125 
Q 24.03125 46.046875 31.15625 46.046875 
Q 34.8125 46.046875 37.453125 44.21875 
Q 40.09375 42.390625 41.65625 38.1875 
Q 42.71875 35.25 42.71875 29.203125 
L 42.71875 10.109375 
Q 42.71875 5.859375 43.40625 4.34375 
Q 43.953125 3.125 45.140625 2.4375 
Q 46.34375 1.765625 49.5625 1.765625 
L 49.5625 0 
L 27.4375 0 
L 27.4375 1.765625 
L 28.375 1.765625 
Q 31.5 1.765625 32.734375 2.703125 
Q 33.984375 3.65625 34.46875 5.515625 
Q 34.671875 6.25 34.671875 10.109375 
L 34.671875 28.421875 
Q 34.671875 34.515625 33.078125 37.28125 
Q 31.5 40.046875 27.734375 40.046875 
Q 21.921875 40.046875 16.15625 33.6875 
L 16.15625 10.109375 
Q 16.15625 5.5625 16.703125 4.5 
Q 17.390625 3.078125 18.578125 2.421875 
Q 19.78125 1.765625 23.4375 1.765625 
L 23.4375 0 
L 1.3125 0 
L 1.3125 1.765625 
L 2.296875 1.765625 
Q 5.71875 1.765625 6.90625 3.484375 
Q 8.109375 5.21875 8.109375 10.109375 
L 8.109375 26.703125 
Q 8.109375 34.765625 7.734375 36.515625 
Q 7.375 38.28125 6.609375 38.90625 
Q 5.859375 39.546875 4.59375 39.546875 
Q 3.21875 39.546875 1.3125 38.8125 
L 0.59375 40.578125 
L 14.0625 46.046875 
L 16.15625 46.046875 
z
" id="TimesNewRomanPSMT-110"/>
      <path d="M 41.109375 17 
Q 39.3125 8.15625 34.03125 3.390625 
Q 28.765625 -1.375 22.359375 -1.375 
Q 14.75 -1.375 9.078125 5.015625 
Q 3.421875 11.421875 3.421875 22.3125 
Q 3.421875 32.859375 9.6875 39.453125 
Q 15.96875 46.046875 24.75 46.046875 
Q 31.34375 46.046875 35.59375 42.546875 
Q 39.84375 39.0625 39.84375 35.296875 
Q 39.84375 33.453125 38.640625 32.296875 
Q 37.453125 31.15625 35.296875 31.15625 
Q 32.421875 31.15625 30.953125 33.015625 
Q 30.125 34.03125 29.859375 36.90625 
Q 29.59375 39.796875 27.875 41.3125 
Q 26.171875 42.78125 23.140625 42.78125 
Q 18.265625 42.78125 15.28125 39.15625 
Q 11.328125 34.375 11.328125 26.515625 
Q 11.328125 18.5 15.25 12.375 
Q 19.1875 6.25 25.875 6.25 
Q 30.671875 6.25 34.46875 9.515625 
Q 37.15625 11.765625 39.703125 17.671875 
z
" id="TimesNewRomanPSMT-99"/>
      <path d="M 34.71875 5.03125 
Q 31.453125 1.609375 28.328125 0.109375 
Q 25.203125 -1.375 21.578125 -1.375 
Q 14.265625 -1.375 8.796875 4.75 
Q 3.328125 10.890625 3.328125 20.515625 
Q 3.328125 30.125 9.375 38.109375 
Q 15.4375 46.09375 24.953125 46.09375 
Q 30.859375 46.09375 34.71875 42.328125 
L 34.71875 50.59375 
Q 34.71875 58.25 34.34375 60 
Q 33.984375 61.765625 33.203125 62.390625 
Q 32.421875 63.03125 31.25 63.03125 
Q 29.984375 63.03125 27.875 62.25 
L 27.25 63.96875 
L 40.578125 69.4375 
L 42.78125 69.4375 
L 42.78125 17.71875 
Q 42.78125 9.859375 43.140625 8.125 
Q 43.5 6.390625 44.3125 5.703125 
Q 45.125 5.03125 46.1875 5.03125 
Q 47.515625 5.03125 49.703125 5.859375 
L 50.25 4.15625 
L 36.96875 -1.375 
L 34.71875 -1.375 
z
M 34.71875 8.453125 
L 34.71875 31.5 
Q 34.421875 34.8125 32.953125 37.546875 
Q 31.5 40.28125 29.078125 41.671875 
Q 26.65625 43.0625 24.359375 43.0625 
Q 20.0625 43.0625 16.703125 39.203125 
Q 12.25 34.125 12.25 24.359375 
Q 12.25 14.5 16.546875 9.25 
Q 20.84375 4 26.125 4 
Q 30.5625 4 34.71875 8.453125 
z
" id="TimesNewRomanPSMT-100"/>
      <path id="TimesNewRomanPSMT-32"/>
      <path d="M 16.40625 36.53125 
Q 21.296875 41.40625 22.171875 42.140625 
Q 24.359375 44 26.890625 45.015625 
Q 29.4375 46.046875 31.9375 46.046875 
Q 36.140625 46.046875 39.15625 43.59375 
Q 42.1875 41.15625 43.21875 36.53125 
Q 48.25 42.390625 51.703125 44.21875 
Q 55.171875 46.046875 58.84375 46.046875 
Q 62.40625 46.046875 65.15625 44.21875 
Q 67.921875 42.390625 69.53125 38.234375 
Q 70.609375 35.40625 70.609375 29.34375 
L 70.609375 10.109375 
Q 70.609375 5.90625 71.234375 4.34375 
Q 71.734375 3.265625 73.046875 2.515625 
Q 74.359375 1.765625 77.34375 1.765625 
L 77.34375 0 
L 55.28125 0 
L 55.28125 1.765625 
L 56.203125 1.765625 
Q 59.078125 1.765625 60.6875 2.875 
Q 61.8125 3.65625 62.3125 5.375 
Q 62.5 6.203125 62.5 10.109375 
L 62.5 29.34375 
Q 62.5 34.8125 61.1875 37.0625 
Q 59.28125 40.1875 55.078125 40.1875 
Q 52.484375 40.1875 49.875 38.890625 
Q 47.265625 37.59375 43.5625 34.078125 
L 43.453125 33.546875 
L 43.5625 31.453125 
L 43.5625 10.109375 
Q 43.5625 5.515625 44.0625 4.390625 
Q 44.578125 3.265625 45.984375 2.515625 
Q 47.40625 1.765625 50.828125 1.765625 
L 50.828125 0 
L 28.21875 0 
L 28.21875 1.765625 
Q 31.9375 1.765625 33.328125 2.640625 
Q 34.71875 3.515625 35.25 5.28125 
Q 35.5 6.109375 35.5 10.109375 
L 35.5 29.34375 
Q 35.5 34.8125 33.890625 37.203125 
Q 31.734375 40.328125 27.875 40.328125 
Q 25.25 40.328125 22.65625 38.921875 
Q 18.609375 36.765625 16.40625 34.078125 
L 16.40625 10.109375 
Q 16.40625 5.71875 17.015625 4.390625 
Q 17.625 3.078125 18.8125 2.421875 
Q 20.015625 1.765625 23.6875 1.765625 
L 23.6875 0 
L 1.5625 0 
L 1.5625 1.765625 
Q 4.640625 1.765625 5.859375 2.421875 
Q 7.078125 3.078125 7.703125 4.515625 
Q 8.34375 5.953125 8.34375 10.109375 
L 8.34375 27.203125 
Q 8.34375 34.578125 7.90625 36.71875 
Q 7.5625 38.328125 6.828125 38.9375 
Q 6.109375 39.546875 4.828125 39.546875 
Q 3.46875 39.546875 1.5625 38.8125 
L 0.828125 40.578125 
L 14.3125 46.046875 
L 16.40625 46.046875 
z
" id="TimesNewRomanPSMT-109"/>
      <path d="M -0.09375 40.28125 
L 13.671875 45.84375 
L 15.53125 45.84375 
L 15.53125 35.40625 
Q 19 41.3125 22.484375 43.671875 
Q 25.984375 46.046875 29.828125 46.046875 
Q 36.578125 46.046875 41.0625 40.765625 
Q 46.578125 34.328125 46.578125 23.96875 
Q 46.578125 12.40625 39.9375 4.828125 
Q 34.46875 -1.375 26.171875 -1.375 
Q 22.5625 -1.375 19.921875 -0.34375 
Q 17.96875 0.390625 15.53125 2.59375 
L 15.53125 -11.03125 
Q 15.53125 -15.625 16.09375 -16.859375 
Q 16.65625 -18.109375 18.046875 -18.84375 
Q 19.4375 -19.578125 23.09375 -19.578125 
L 23.09375 -21.390625 
L -0.34375 -21.390625 
L -0.34375 -19.578125 
L 0.875 -19.578125 
Q 3.5625 -19.625 5.46875 -18.5625 
Q 6.390625 -18.015625 6.90625 -16.8125 
Q 7.421875 -15.625 7.421875 -10.75 
L 7.421875 31.546875 
Q 7.421875 35.890625 7.03125 37.0625 
Q 6.640625 38.234375 5.78125 38.8125 
Q 4.9375 39.40625 3.46875 39.40625 
Q 2.296875 39.40625 0.484375 38.71875 
z
M 15.53125 32.515625 
L 15.53125 15.828125 
Q 15.53125 10.40625 15.96875 8.6875 
Q 16.65625 5.859375 19.3125 3.703125 
Q 21.96875 1.5625 26.03125 1.5625 
Q 30.90625 1.5625 33.9375 5.375 
Q 37.890625 10.359375 37.890625 19.390625 
Q 37.890625 29.640625 33.40625 35.15625 
Q 30.28125 38.96875 25.984375 38.96875 
Q 23.640625 38.96875 21.34375 37.796875 
Q 19.578125 36.921875 15.53125 32.515625 
z
" id="TimesNewRomanPSMT-112"/>
      <path d="M 32.03125 46.046875 
L 32.03125 30.8125 
L 30.421875 30.8125 
Q 28.5625 37.984375 25.65625 40.578125 
Q 22.75 43.171875 18.265625 43.171875 
Q 14.84375 43.171875 12.734375 41.359375 
Q 10.640625 39.546875 10.640625 37.359375 
Q 10.640625 34.625 12.203125 32.671875 
Q 13.71875 30.671875 18.359375 28.421875 
L 25.484375 24.953125 
Q 35.40625 20.125 35.40625 12.203125 
Q 35.40625 6.109375 30.78125 2.359375 
Q 26.171875 -1.375 20.453125 -1.375 
Q 16.359375 -1.375 11.078125 0.09375 
Q 9.46875 0.59375 8.453125 0.59375 
Q 7.328125 0.59375 6.6875 -0.6875 
L 5.078125 -0.6875 
L 5.078125 15.28125 
L 6.6875 15.28125 
Q 8.0625 8.453125 11.90625 4.984375 
Q 15.765625 1.515625 20.5625 1.515625 
Q 23.921875 1.515625 26.046875 3.484375 
Q 28.171875 5.46875 28.171875 8.25 
Q 28.171875 11.625 25.796875 13.921875 
Q 23.4375 16.21875 16.359375 19.734375 
Q 9.28125 23.25 7.078125 26.078125 
Q 4.890625 28.859375 4.890625 33.109375 
Q 4.890625 38.625 8.671875 42.328125 
Q 12.453125 46.046875 18.453125 46.046875 
Q 21.09375 46.046875 24.859375 44.921875 
Q 27.34375 44.1875 28.171875 44.1875 
Q 28.953125 44.1875 29.390625 44.53125 
Q 29.828125 44.875 30.421875 46.046875 
z
" id="TimesNewRomanPSMT-115"/>
     </defs>
     <g transform="translate(76.782813 23.2)scale(0.1 -0.1)">
      <use xlink:href="#TimesNewRomanPSMT-67"/>
      <use x="66.699219" xlink:href="#TimesNewRomanPSMT-111"/>
      <use x="116.699219" xlink:href="#TimesNewRomanPSMT-110"/>
      <use x="166.699219" xlink:href="#TimesNewRomanPSMT-110"/>
      <use x="216.699219" xlink:href="#TimesNewRomanPSMT-101"/>
      <use x="261.083984" xlink:href="#TimesNewRomanPSMT-99"/>
      <use x="305.46875" xlink:href="#TimesNewRomanPSMT-116"/>
      <use x="333.251953" xlink:href="#TimesNewRomanPSMT-101"/>
      <use x="377.636719" xlink:href="#TimesNewRomanPSMT-100"/>
      <use x="427.636719" xlink:href="#TimesNewRomanPSMT-32"/>
      <use x="452.636719" xlink:href="#TimesNewRomanPSMT-67"/>
      <use x="519.335938" xlink:href="#TimesNewRomanPSMT-111"/>
      <use x="569.335938" xlink:href="#TimesNewRomanPSMT-109"/>
      <use x="647.119141" xlink:href="#TimesNewRomanPSMT-112"/>
      <use x="697.119141" xlink:href="#TimesNewRomanPSMT-111"/>
      <use x="747.119141" xlink:href="#TimesNewRomanPSMT-110"/>
      <use x="797.119141" xlink:href="#TimesNewRomanPSMT-101"/>
      <use x="841.503906" xlink:href="#TimesNewRomanPSMT-110"/>
      <use x="891.503906" xlink:href="#TimesNewRomanPSMT-116"/>
      <use x="919.287109" xlink:href="#TimesNewRomanPSMT-115"/>
     </g>
    </g>
    <g id="PathCollection_4">
     <path d="M 58.782813 36.95013 
C 59.375825 36.95013 59.944628 36.714524 60.363951 36.295201 
C 60.783274 35.875878 61.01888 35.307075 61.01888 34.714062 
C 61.01888 34.12105 60.783274 33.552247 60.363951 33.132924 
C 59.944628 32.713601 59.375825 32.477995 58.782813 32.477995 
C 58.1898 32.477995 57.620997 32.713601 57.201674 33.132924 
C 56.782351 33.552247 56.546745 34.12105 56.546745 34.714062 
C 56.546745 35.307075 56.782351 35.875878 57.201674 36.295201 
C 57.620997 36.714524 58.1898 36.95013 58.782813 36.95013 
z
" style="fill:#ff7f0e;"/>
    </g>
    <g id="text_16">
     <!-- Holes -->
     <defs>
      <path d="M 20.5625 35.5 
L 51.3125 35.5 
L 51.3125 54.4375 
Q 51.3125 59.515625 50.6875 61.140625 
Q 50.203125 62.359375 48.640625 63.234375 
Q 46.53125 64.40625 44.1875 64.40625 
L 41.84375 64.40625 
L 41.84375 66.21875 
L 70.171875 66.21875 
L 70.171875 64.40625 
L 67.828125 64.40625 
Q 65.484375 64.40625 63.375 63.28125 
Q 61.8125 62.5 61.25 60.90625 
Q 60.6875 59.328125 60.6875 54.4375 
L 60.6875 11.71875 
Q 60.6875 6.6875 61.328125 5.078125 
Q 61.8125 3.859375 63.328125 2.984375 
Q 65.484375 1.8125 67.828125 1.8125 
L 70.171875 1.8125 
L 70.171875 0 
L 41.84375 0 
L 41.84375 1.8125 
L 44.1875 1.8125 
Q 48.25 1.8125 50.09375 4.203125 
Q 51.3125 5.765625 51.3125 11.71875 
L 51.3125 31.890625 
L 20.5625 31.890625 
L 20.5625 11.71875 
Q 20.5625 6.6875 21.1875 5.078125 
Q 21.6875 3.859375 23.25 2.984375 
Q 25.34375 1.8125 27.6875 1.8125 
L 30.078125 1.8125 
L 30.078125 0 
L 1.703125 0 
L 1.703125 1.8125 
L 4.046875 1.8125 
Q 8.15625 1.8125 10.015625 4.203125 
Q 11.1875 5.765625 11.1875 11.71875 
L 11.1875 54.4375 
Q 11.1875 59.515625 10.546875 61.140625 
Q 10.0625 62.359375 8.546875 63.234375 
Q 6.390625 64.40625 4.046875 64.40625 
L 1.703125 64.40625 
L 1.703125 66.21875 
L 30.078125 66.21875 
L 30.078125 64.40625 
L 27.6875 64.40625 
Q 25.34375 64.40625 23.25 63.28125 
Q 21.734375 62.5 21.140625 60.90625 
Q 20.5625 59.328125 20.5625 54.4375 
z
" id="TimesNewRomanPSMT-72"/>
      <path d="M 18.5 69.4375 
L 18.5 10.109375 
Q 18.5 5.90625 19.109375 4.53125 
Q 19.734375 3.171875 21 2.46875 
Q 22.265625 1.765625 25.734375 1.765625 
L 25.734375 0 
L 3.8125 0 
L 3.8125 1.765625 
Q 6.890625 1.765625 8 2.390625 
Q 9.125 3.03125 9.765625 4.484375 
Q 10.40625 5.953125 10.40625 10.109375 
L 10.40625 50.734375 
Q 10.40625 58.296875 10.0625 60.03125 
Q 9.71875 61.765625 8.953125 62.390625 
Q 8.203125 63.03125 7.03125 63.03125 
Q 5.765625 63.03125 3.8125 62.25 
L 2.984375 63.96875 
L 16.3125 69.4375 
z
" id="TimesNewRomanPSMT-108"/>
     </defs>
     <g transform="translate(76.782813 37.339062)scale(0.1 -0.1)">
      <use xlink:href="#TimesNewRomanPSMT-72"/>
      <use x="72.216797" xlink:href="#TimesNewRomanPSMT-111"/>
      <use x="122.216797" xlink:href="#TimesNewRomanPSMT-108"/>
      <use x="150" xlink:href="#TimesNewRomanPSMT-101"/>
      <use x="194.384766" xlink:href="#TimesNewRomanPSMT-115"/>
     </g>
    </g>
   </g>
  </g>
 </g>
 <defs>
  <clipPath id="p96e1b23b24">
   <rect height="266.112" width="266.112" x="39.782813" y="7.2"/>
  </clipPath>
 </defs>
</svg>
